<?xml version="1.0" standalone="no"?>
<!DOCTYPE svg PUBLIC "-//W3C//DTD SVG 20010904//EN"
 "http://www.w3.org/TR/2001/REC-SVG-20010904/DTD/svg10.dtd">
<svg version="1.0" xmlns="http://www.w3.org/2000/svg"
 width="348.000000pt" height="231.000000pt" viewBox="0 0 348.000000 231.000000"
 preserveAspectRatio="xMidYMid meet">
<metadata>
Created by potrace 1.15, written by Peter Selinger 2001-2017
</metadata>
<g transform="translate(0.000000,231.000000) scale(0.100000,-0.100000)"
fill="#000000" stroke="none">
<path d="M1510 1195 c0 -523 3 -795 10 -795 7 0 10 272 10 795 0 523 -3 795
-10 795 -7 0 -10 -272 -10 -795z"/>
<path d="M778 1895 c-103 -39 -190 -128 -253 -260 -67 -139 -78 -200 -73 -411
4 -165 6 -186 33 -262 76 -225 230 -366 396 -366 176 0 342 170 411 420 18 66
21 106 21 239 1 146 -2 168 -27 250 -15 49 -44 121 -64 160 -45 85 -139 183
-207 215 -62 29 -182 37 -237 15z m434 -365 l-4 -40 -329 0 -329 0 0 40 0 40
333 0 333 0 -4 -40z m-670 -82 c28 -24 40 -128 14 -128 -18 0 -21 -15 -5 -25
15 -10 -26 -36 -44 -29 -17 6 -34 -15 -20 -25 5 -3 7 -17 3 -31 l-6 -25 -8 23
c-10 30 0 145 22 247 14 65 18 74 20 45 2 -19 13 -42 24 -52z m413 -8 c-40
-26 -75 -92 -75 -140 0 -27 -7 -45 -21 -59 -12 -11 -18 -25 -14 -31 6 -9 -9
-11 -55 -9 l-63 4 -13 -50 c-41 -159 -54 -141 -54 75 0 147 3 180 14 180 8 0
17 11 20 25 l6 25 143 0 142 0 -30 -20z m121 -5 c3 -14 12 -25 20 -25 11 0 14
-33 14 -180 0 -113 -4 -180 -10 -180 -5 0 -10 -7 -10 -15 0 -13 -30 -15 -207
-15 -115 0 -203 4 -196 8 7 4 16 19 22 32 10 25 10 25 16 3 8 -26 30 -29 191
-25 l120 3 2 57 c2 72 -22 102 -80 102 -27 0 -38 4 -38 15 0 9 -6 18 -13 21
-10 4 -8 17 12 58 14 30 37 79 51 110 24 54 26 56 62 56 32 0 39 -4 44 -25z"/>
<path d="M573 1531 l0 -29 143 -1 142 -1 4 30 c4 24 1 30 -14 30 -10 0 -18 -5
-18 -11 0 -8 -4 -8 -13 0 -21 17 -197 13 -197 -4 0 -8 -5 -17 -11 -21 -8 -4
-9 0 -4 15 5 16 2 21 -13 21 -14 0 -19 -7 -19 -29z"/>
<path d="M881 1533 c-6 -13 -11 -26 -11 -28 0 -3 29 -5 65 -5 37 0 65 4 65 10
0 6 5 10 11 10 5 0 8 -4 4 -9 -3 -6 32 -9 87 -8 92 2 93 2 93 27 l0 25 -151 1
c-152 1 -152 1 -163 -23z"/>
<path d="M1660 1310 c0 -149 9 -178 64 -204 43 -20 118 -21 156 -1 54 28 60
46 60 197 l0 138 -40 0 -40 0 0 -124 c0 -100 -3 -128 -16 -140 -18 -18 -47
-20 -75 -6 -17 10 -19 22 -19 140 l0 130 -45 0 -45 0 0 -130z"/>
<path d="M1990 1270 l0 -170 40 0 40 0 0 113 0 112 63 -110 63 -110 42 -3 42
-3 0 170 0 171 -40 0 -39 0 -3 -100 -3 -101 -55 100 -55 101 -47 0 -48 0 0
-170z"/>
<path d="M2419 1413 c-17 -44 -109 -304 -109 -309 0 -2 20 -4 44 -4 41 0 45 2
51 30 6 29 8 30 66 30 58 0 60 -1 70 -30 10 -27 15 -30 56 -30 38 0 44 3 39
18 -3 9 -30 85 -59 167 l-54 150 -46 3 c-43 3 -48 1 -58 -25z"/>
<path d="M2670 1270 l0 -170 40 0 40 0 0 75 0 75 60 0 60 0 0 -75 0 -75 40 0
40 0 0 170 0 170 -40 0 -40 0 0 -60 0 -60 -60 0 -60 0 0 60 0 60 -40 0 -40 0
0 -170z"/>
<path d="M1662 973 c3 -37 4 -38 46 -39 33 -2 42 2 42 15 1 14 2 14 11 -1 12
-21 55 -24 62 -5 4 10 6 10 6 0 1 -19 29 -15 34 5 4 16 5 16 6 0 0 -10 6 -18
13 -18 9 0 9 -3 0 -12 -7 -7 -33 -11 -61 -9 -47 2 -50 1 -54 -26 l-4 -28 -2
28 c-1 33 -31 38 -32 5 l0 -23 -9 23 c-12 29 -34 28 -48 -3 -21 -46 -12 -71
16 -43 8 8 15 9 20 3 10 -15 69 -16 80 -2 5 7 12 21 15 32 3 13 5 9 6 -12 1
-44 31 -46 31 -3 0 17 5 30 10 30 6 0 10 -11 10 -24 0 -29 33 -44 55 -26 11 9
15 9 15 1 0 -15 27 -14 33 2 4 10 6 10 6 0 1 -16 31 -17 31 -2 0 8 4 8 13 2
19 -15 159 -15 170 0 7 9 10 9 14 0 5 -13 33 -18 33 -6 0 4 -5 22 -12 40 -13
36 -43 45 -51 16 -4 -17 -5 -17 -6 0 -1 10 -9 17 -20 17 -11 0 -22 -8 -24 -17
-4 -17 -5 -17 -6 0 -1 12 -9 17 -28 17 -16 0 -35 0 -43 0 -8 0 -39 -1 -68 -2
-55 -3 -81 9 -43 19 12 3 21 12 21 19 0 8 5 14 10 14 6 0 10 -7 10 -15 0 -12
17 -15 90 -15 53 0 90 4 90 10 0 6 7 10 15 10 8 0 15 -5 15 -11 0 -6 16 -9 38
-7 34 3 37 6 40 35 3 28 0 33 -24 39 -20 5 -31 2 -41 -11 -12 -17 -13 -17 -13
-2 0 21 -19 22 -27 2 -5 -14 -8 -14 -22 -2 -12 11 -48 15 -144 16 -123 0 -128
-1 -136 -22 l-8 -22 -7 23 c-9 28 -66 32 -66 5 -1 -17 -1 -17 -11 0 -5 9 -19
17 -29 17 -16 0 -20 -7 -20 -30 0 -20 -5 -30 -15 -30 -10 0 -15 10 -15 30 0
17 -5 30 -11 30 -6 0 -9 -16 -7 -37z"/>
<path d="M2286 988 c-10 -38 -7 -58 9 -58 8 0 15 8 15 18 1 16 1 16 11 0 12
-21 45 -24 52 -5 3 9 7 9 18 0 9 -7 49 -11 107 -11 77 1 92 4 92 17 1 14 2 14
14 -1 14 -19 46 -24 46 -8 0 6 7 10 15 10 8 0 15 -4 15 -10 0 -5 16 -10 35
-10 19 0 35 5 35 10 0 6 -7 10 -15 10 -10 0 -15 10 -15 30 0 21 -5 30 -16 30
-12 0 -15 -6 -10 -27 l5 -28 -11 25 c-17 36 -18 37 -34 16 -13 -18 -14 -18
-14 -2 0 10 -6 16 -12 13 -7 -2 -12 -13 -11 -23 1 -18 1 -18 -13 1 -12 17 -28
20 -94 22 -69 1 -82 -1 -94 -18 -13 -20 -14 -20 -19 1 -7 28 -24 25 -35 -7
l-10 -28 -1 28 c-1 29 -21 38 -21 10 -1 -17 -1 -17 -14 0 -17 22 -22 22 -30
-5z"/>
<path d="M2496 911 c-4 -6 -14 -7 -22 -4 -9 3 -20 0 -26 -8 -7 -11 -11 -11
-15 -1 -10 26 -23 10 -23 -28 0 -22 5 -40 10 -40 6 0 10 7 10 15 0 8 5 15 10
15 6 0 10 -6 10 -14 0 -16 67 -19 88 -3 8 6 12 6 12 -2 0 -15 27 -14 33 2 4
10 6 10 6 0 1 -16 77 -18 86 -3 4 6 12 7 18 3 6 -4 30 -8 54 -9 32 -2 43 1 46
14 4 15 5 15 6 0 1 -21 46 -25 54 -5 4 9 8 9 14 0 4 -6 24 -11 43 -10 33 2 35
4 38 38 2 27 -1 38 -14 43 -21 8 -47 -12 -40 -31 3 -8 1 -11 -4 -8 -6 3 -10
13 -10 21 0 8 -9 14 -20 14 -12 0 -20 -7 -20 -17 -1 -17 -1 -17 -11 0 -7 12
-23 17 -54 17 -40 0 -44 -2 -48 -27 l-4 -28 -2 27 -1 27 -92 -1 c-51 0 -100 3
-109 7 -10 3 -20 2 -23 -4z"/>
</g>
</svg>
